<?xml version="1.0" encoding="utf-8"?>
<!-- Generator: Adobe Illustrator 21.1.0, SVG Export Plug-In . SVG Version: 6.00 Build 0)  -->
<svg version="1.1" id="Layer_1" xmlns="http://www.w3.org/2000/svg" xmlns:xlink="http://www.w3.org/1999/xlink" x="0px" y="0px"
	 viewBox="0 0 95 109" style="enable-background:new 0 0 95 109;" xml:space="preserve">
<path id="Shape_2_copy_2" d="M0,0h95v109L30.6,74.8l12.5,14.5L0,109V0z M37.2,57.5c1.7-0.6,3.3-1.5,4.7-2.7c1.3-1.2,2.3-2.6,3-4.3
	c0.7-1.8,1.1-3.8,1-5.8V21.7h-9.2v22.5c0.1,1.6-0.4,3.2-1.4,4.5c-1.1,1.1-2.6,1.7-4.1,1.6c-1.5,0.1-3-0.5-4.1-1.6
	c-1-1.2-1.6-2.8-1.5-4.5V21.7h-9.2v23.1c0,2,0.3,3.9,1.1,5.8c0.7,1.6,1.7,3.1,3,4.3c1.4,1.2,2.9,2.1,4.7,2.7c2,0.7,4,1,6.1,0.9
	C33.2,58.5,35.2,58.1,37.2,57.5z M57.8,57.7L64,47l6,10.7h10.6L70.2,39l9.6-17.4H69.5l-5.5,9.6l-5.5-9.6H45.2l12.7,17.5L45.4,57.7
	H57.8z"/>
</svg>
